<?xml version="1.0" standalone="no"?>
<!DOCTYPE svg PUBLIC "-//W3C//DTD SVG 20010904//EN"
 "http://www.w3.org/TR/2001/REC-SVG-20010904/DTD/svg10.dtd">
<svg version="1.0" xmlns="http://www.w3.org/2000/svg"
 width="260.000000pt" height="260.000000pt" viewBox="0 0 260.000000 260.000000"
 preserveAspectRatio="xMidYMid meet">
<metadata>
Created by potrace 1.11, written by Peter Selinger 2001-2013
</metadata>
<g transform="translate(0.000000,260.000000) scale(0.100000,-0.100000)"
fill="#000000" stroke="none">
<path d="M1267 2579 c-17 -24 -18 -182 -2 -197 22 -21 54 -23 73 -4 16 16 19
33 18 104 -1 92 -12 118 -52 118 -12 0 -29 -9 -37 -21z"/>
<path d="M987 2472 c-25 -27 -22 -39 28 -125 40 -67 49 -77 74 -77 62 0 65 50
9 141 -50 82 -78 97 -111 61z"/>
<path d="M1545 2463 c-14 -15 -25 -33 -25 -38 0 -6 -11 -26 -25 -45 -42 -57
-30 -110 27 -110 24 0 34 10 73 77 50 86 53 102 27 126 -26 24 -47 21 -77 -10z"/>
<path d="M864 2109 c-24 -7 -36 -18 -47 -47 -24 -62 -39 -141 -33 -168 6 -24
-13 -76 -114 -309 -10 -22 -23 -56 -29 -77 -10 -29 -22 -41 -66 -62 -105 -52
-187 -169 -220 -312 -2 -10 -24 -93 -49 -184 -42 -154 -54 -199 -107 -397 -75
-280 -74 -274 -46 -333 31 -64 55 -74 367 -156 30 -8 62 -16 71 -18 9 -3 54
-14 98 -26 95 -26 146 -23 196 12 19 12 41 39 49 58 13 29 59 196 140 500 8
30 37 142 66 249 39 148 51 208 49 255 -2 70 -35 170 -71 218 -20 27 -23 39
-17 68 4 19 10 58 14 86 3 29 7 60 9 70 4 20 13 104 22 188 3 31 12 57 26 71
19 20 57 136 58 177 0 10 -12 31 -27 47 -23 23 -51 35 -152 61 -154 40 -150
39 -187 29z"/>
<path d="M1562 2080 c-84 -24 -142 -45 -155 -58 -21 -21 -27 -64 -14 -112 3
-14 8 -35 11 -47 6 -29 34 -80 45 -85 5 -1 12 -28 16 -58 3 -30 8 -73 11 -95
2 -22 7 -62 10 -90 3 -27 9 -72 14 -98 15 -73 12 -92 -19 -144 -69 -113 -76
-215 -27 -398 20 -71 45 -166 57 -210 12 -44 29 -105 37 -135 18 -63 19 -67
26 -98 17 -75 89 -333 102 -362 19 -45 72 -81 127 -87 41 -5 262 48 512 123
95 28 95 28 129 78 28 41 35 111 17 159 -5 13 -12 37 -15 53 -2 16 -23 97 -46
179 -22 83 -43 157 -45 165 -14 53 -46 174 -59 223 -9 31 -23 83 -31 115 -36
131 -47 162 -76 205 -38 58 -107 122 -161 148 -42 21 -44 24 -122 208 -64 150
-78 195 -77 231 1 25 -8 79 -19 121 -34 118 -53 123 -248 69z"/>
</g>
</svg>
